# xmcd
#
# Track frame offsets:
#	150
#	17150
#	31597
#	44600
#	57612
#	73125
#	85925
#	102172
#	115972
#	133065
#
# Disc length: 1942 seconds
#
# Revision: 6
# Processed by: cddbd v1.5.2PL0 Copyright (c) Steve Scherf et al.
# Submitted via: audiograbber 1.83.01
#
DISCID=8b07940a
DTITLE=Various Artist - Biggest Country Hits of the 90's Vol. 2
DYEAR=1994
DGENRE=Country
TTITLE0=When I Could Come Home To You - Steve Wariner
TTITLE1=Walls Can Fall - George Jones
TTITLE2=Mark Collie - She's Never Comin' Back
TTITLE3=No Matter How High - Oak Ridge Boys
TTITLE4=Little Girl - Reba Mcentire
TTITLE5=Who's Gonna Know - Conway Twitty
TTITLE6=Never Alone - Vince Gill
TTITLE7=The Lonely Side Of Love - Patty Loveless
TTITLE8=Baby Take A Piece Of My Heart - Kelly Willis
TTITLE9=Your Love Is A Miracle - Mark Chestnut
EXTD=
EXTT0=
EXTT1=
EXTT2=
EXTT3=
EXTT4=
EXTT5=
EXTT6=
EXTT7=
EXTT8=
EXTT9=
PLAYORDER=
